<?xml version="1.0" standalone="no"?>
<!DOCTYPE svg PUBLIC "-//W3C//DTD SVG 20010904//EN"
 "http://www.w3.org/TR/2001/REC-SVG-20010904/DTD/svg10.dtd">
<svg version="1.0" xmlns="http://www.w3.org/2000/svg"
 width="300.000000pt" height="300.000000pt" viewBox="0 0 300.000000 300.000000"
 preserveAspectRatio="xMidYMid meet">
<metadata>
Created by potrace 1.11, written by Peter Selinger 2001-2013
</metadata>
<g transform="translate(0.000000,300.000000) scale(0.100000,-0.100000)"
fill="#000000" stroke="none">
<path d="M1483 2843 c-11 -15 -33 -50 -49 -78 -45 -77 -44 -76 -139 -232 -49
-81 -95 -157 -101 -168 -6 -11 -129 -215 -272 -453 -144 -238 -262 -434 -262
-436 0 -2 71 -46 157 -97 87 -51 275 -162 418 -247 l260 -153 40 20 c42 22
115 63 152 87 12 7 37 22 55 32 18 11 105 62 193 114 88 52 215 128 283 167
67 40 122 75 122 78 0 3 -44 78 -97 166 -54 89 -102 170 -108 180 -5 9 -49 81
-96 160 -47 78 -186 309 -309 512 -123 204 -224 371 -225 373 -2 2 -12 -9 -22
-25z"/>
<path d="M750 1183 c50 -70 130 -183 178 -251 48 -67 159 -224 247 -347 88
-124 196 -277 240 -340 44 -63 82 -114 85 -114 3 -1 57 72 120 162 63 89 158
223 210 297 53 74 185 261 295 415 109 154 203 286 209 293 13 18 -3 9 -399
-226 -181 -107 -346 -204 -365 -214 -19 -11 -39 -24 -45 -29 -19 -19 35 -48
-565 306 -157 92 -289 170 -293 172 -4 3 33 -53 83 -124z"/>
</g>
</svg>
